# Alias OBJ Model File
# Exported from SketchUp, (c) 2000-2012 Trimble Navigation Limited
# File units = inches

mtllib button-based-cirlce.mtl

g Mesh1 Model

usemtl FrontColor
v 0.476327 -1.06178 -0.24339
vt -0.476327 0.24339
vn 0 -1 -0
v 0.321536 -1.06178 -0.176664
vt -0.321536 0.176664
v 0.330303 -1.06178 -0.602712
vt -0.330303 0.602712
v 0.753832 -1.06178 -0.706963
vt -0.753832 0.706963
v 1.37646 -1.06178 -0.69423
vt -1.37646 0.69423
v 1.97457 -1.06178 -0.520784
vt -1.97457 0.520784
v 2.50742 -1.06178 -0.198443
vt -2.50742 0.198443
v 2.93868 -1.06178 0.250824
vt -2.93868 -0.250824
v 3.23897 -1.06178 0.796401
vt -3.23897 -0.796401
v 3.38781 -1.06178 1.40111
vt -3.38781 -1.40111
v 3.37508 -1.06178 2.02374
vt -3.37508 -2.02374
v 3.20163 -1.06178 2.62185
vt -3.20163 -2.62185
v 2.87929 -1.06178 3.1547
vt -2.87929 -3.1547
v 2.43003 -1.06178 3.58596
vt -2.43003 -3.58596
v 1.88445 -1.06178 3.88624
vt -1.88445 -3.88624
v 1.27974 -1.06178 4.03509
vt -1.27974 -4.03509
v 0.657116 -1.06178 4.02236
vt -0.657116 -4.02236
v 0.237631 -1.06178 3.90071
vt -0.237631 -3.90071
v 0.246432 -1.06178 3.47302
vt -0.246432 -3.47302
v 0.531113 -1.06178 3.5862
vt -0.531113 -3.5862
v 1.04515 -1.06178 3.6464
vt -1.04515 -3.6464
v 1.55725 -1.06178 3.57152
vt -1.55725 -3.57152
v 2.03252 -1.06178 3.36664
vt -2.03252 -3.36664
v 2.43857 -1.06178 3.04574
vt -2.43857 -3.04574
v 2.74772 -1.06178 2.63067
vt -2.74772 -2.63067
v 2.93892 -1.06178 2.14974
vt -2.93892 -2.14974
v 2.99913 -1.06178 1.6357
vt -2.99913 -1.6357
v 2.92424 -1.06178 1.1236
vt -2.92424 -1.1236
v 2.71936 -1.06178 0.648333
vt -2.71936 -0.648333
v 2.39846 -1.06178 0.242284
vt -2.39846 -0.242284
v 1.9834 -1.06178 -0.0668733
vt -1.9834 0.0668733
v 1.50246 -1.06178 -0.25807
vt -1.50246 0.25807
v 0.988428 -1.06178 -0.318277
vt -0.988428 0.318277
f 1/1/1 2/2/1 3/3/1 4/4/1 5/5/1 6/6/1 7/7/1 8/8/1 9/9/1 10/10/1 11/11/1 12/12/1 13/13/1 14/14/1 15/15/1 16/16/1 17/17/1 18/18/1 19/19/1 20/20/1 21/21/1 22/22/1 23/23/1 24/24/1 25/25/1 26/26/1 27/27/1 28/28/1 29/29/1 30/30/1 31/31/1 32/32/1 33/33/1 

vt 0.365204 -1.06178
vn 0.39586 9.32281e-16 0.918311
vt 0.533764 -1.06178
vn 0.27261 4.70163e-16 0.962125
v 0.476327 -0.343501 -0.24339
vt 0.533764 -0.343501
v 0.00105694 -0.343501 -0.0385137
vt 0.0162166 -0.343501
vn 0.512337 4.70163e-16 0.858784
v 0.00105694 -1.06178 -0.0385137
vt 0.0162166 -1.06178
f 2/34/2 1/35/3 34/36/3 35/37/4 36/38/4 

f 19/19/1 2/2/1 1/1/1 33/33/1 32/32/1 31/31/1 30/30/1 29/29/1 28/28/1 27/27/1 26/26/1 25/25/1 24/24/1 23/23/1 22/22/1 21/21/1 20/20/1 

v 0.0501773 -1.06178 3.395
vt -0.0501773 -3.395
v -0.364886 -1.06178 3.08584
vt 0.364886 -3.08584
v -0.68579 -1.06178 2.67979
vt 0.68579 -2.67979
v -0.890667 -1.06178 2.20452
vt 0.890667 -2.20452
v -0.965553 -1.06178 1.69242
vt 0.965553 -1.69242
v -0.905347 -1.06178 1.17839
vt 0.905347 -1.17839
v -0.71415 -1.06178 0.697454
vt 0.71415 -0.697454
v -0.404992 -1.06178 0.282391
vt 0.404992 -0.282391
vt -0.00105694 0.0385137
f 2/2/1 19/19/1 37/39/1 38/40/1 39/41/1 40/42/1 41/43/1 42/44/1 43/45/1 44/46/1 36/47/1 

vt -1.51203 -1.06178
vn 0.369428 5.76487e-16 -0.929259
vt -1.30084 -1.06178
vn 0.487561 2.90731e-16 -0.873089
v 0.0501773 -0.343501 3.395
vt -1.30084 -0.343501
v 0.531113 -0.343501 3.5862
vt -1.81839 -0.343501
vn 0.244975 2.90731e-16 -0.969529
vt -1.81839 -1.06178
f 19/48/5 37/49/6 45/50/6 46/51/7 20/52/7 

v 0.149125 -1.06178 -0.558115
vt -0.149125 0.558115
v 0.0590002 -1.06178 3.84891
vt -0.0590002 -3.84891
v -0.473844 -1.06178 3.52657
vt 0.473844 -3.52657
v -0.905104 -1.06178 3.0773
vt 0.905104 -3.0773
v -1.20539 -1.06178 2.53173
vt 1.20539 -2.53173
v -1.35424 -1.06178 1.92702
vt 1.35424 -1.92702
v -1.34151 -1.06178 1.30439
vt 1.34151 -1.30439
v -1.16806 -1.06178 0.706277
vt 1.16806 -0.706277
v -0.84572 -1.06178 0.173432
vt 0.84572 -0.173432
v -0.396453 -1.06178 -0.257828
vt 0.396453 0.257828
f 47/53/1 3/3/1 2/2/1 36/47/1 44/46/1 43/45/1 42/44/1 41/43/1 40/42/1 39/41/1 38/40/1 37/39/1 19/19/1 18/18/1 48/54/1 49/55/1 50/56/1 51/57/1 52/58/1 53/59/1 54/60/1 55/61/1 56/62/1 

vt -0.464787 -1.06178
vn -0.239016 3.5449e-16 -0.971016
vt -0.278201 -1.06178
vn -0.363714 1.78775e-16 -0.931511
v 0.149125 0.94802 -0.558115
vt -0.278201 0.94802
v 0.753832 0.94802 -0.706963
vt -0.900958 0.94802
vn -0.110228 1.78775e-16 -0.993906
vt -0.900958 -1.06178
f 3/63/8 47/64/9 57/65/9 58/66/10 4/67/10 

vt -0.39976 -1.06178
vt 0.222997 -1.06178
vn -0.592413 0 -0.805634
v -0.396453 0.94802 -0.257828
vt 0.222997 0.94802
vt -0.39976 0.94802
f 47/68/9 56/69/11 59/70/11 57/71/9 

vt 0.107461 -1.06178
vt 0.730218 -1.06178
vn -0.780741 0 -0.624855
v -0.84572 0.94802 0.173432
vt 0.730218 0.94802
vt 0.107461 0.94802
f 56/72/11 55/73/12 60/74/12 59/75/11 

vt 0.586139 -1.06178
vt 1.2089 -1.06178
vn -0.915862 0 -0.401493
v -1.16806 0.94802 0.706277
vt 1.2089 0.94802
vt 0.586139 0.94802
f 55/76/12 54/77/13 61/78/13 60/79/12 

vt 1.00365 -1.06178
vt 1.62641 -1.06178
vn -0.988569 0 -0.15077
v -1.34151 0.94802 1.30439
vt 1.62641 0.94802
vt 1.00365 0.94802
f 54/80/13 53/81/14 62/82/14 61/83/13 

vt 1.33155 -1.06178
vt 1.95431 -1.06178
vn -0.993906 0 0.110228
v -1.35424 0.94802 1.92702
vt 1.95431 0.94802
vt 1.33155 0.94802
f 53/84/14 52/85/15 63/86/15 62/87/14 

vt 1.54748 -1.06178
vt 2.17024 -1.06178
vn -0.931511 0 0.363714
v -1.20539 0.94802 2.53173
vt 2.17024 0.94802
vt 1.54748 0.94802
f 52/88/15 51/89/16 64/90/16 63/91/15 

vt 1.63674 -1.06178
vt 2.25949 -1.06178
vn -0.805634 0 0.592413
v -0.905104 0.94802 3.0773
vt 2.25949 0.94802
vt 1.63674 0.94802
f 51/92/16 50/93/17 65/94/17 64/95/16 

vt 1.59323 -1.06178
vt 2.21599 -1.06178
vn -0.624855 0 0.780741
v -0.473844 0.94802 3.52657
vt 2.21599 0.94802
vt 1.59323 0.94802
f 50/96/17 49/97/18 66/98/18 65/99/17 

vt 1.41993 -1.06178
vt 2.04269 -1.06178
vn -0.401493 -7.5488e-17 0.915862
v 0.0590002 0.94802 3.84891
vt 2.04269 0.94802
vt 1.41993 0.94802
f 49/100/18 48/101/19 67/102/19 66/103/18 

vt 1.31463 -1.06178
vn -0.278514 -1.49684e-16 0.960432
vt 1.7514 -1.06178
vn -0.15077 -7.5488e-17 0.988569
v 0.657116 0.94802 4.02236
vt 1.7514 0.94802
vt 1.12864 0.94802
vt 1.12864 -1.06178
f 18/104/20 17/105/21 68/106/21 67/107/19 48/108/19 

vt 0.73922 -1.06178
vt 1.36198 -1.06178
vn 0.110228 0 0.993906
v 1.27974 0.94802 4.03509
vt 1.36198 0.94802
vt 0.73922 0.94802
f 17/109/21 16/110/22 69/111/22 68/112/21 

vt 0.278201 -1.06178
vt 0.900958 -1.06178
vn 0.363714 0 0.931511
v 1.88445 0.94802 3.88624
vt 0.900958 0.94802
vt 0.278201 0.94802
f 16/113/22 15/114/23 70/115/23 69/116/22 

vt -0.222997 -1.06178
vt 0.39976 -1.06178
vn 0.592413 0 0.805634
v 2.43003 0.94802 3.58596
vt 0.39976 0.94802
vt -0.222997 0.94802
f 15/117/23 14/118/24 71/119/24 70/120/23 

vt -0.730218 -1.06178
vt -0.107461 -1.06178
vn 0.780741 0 0.624855
v 2.87929 0.94802 3.1547
vt -0.107461 0.94802
vt -0.730218 0.94802
f 14/121/24 13/122/25 72/123/25 71/124/24 

vt -1.2089 -1.06178
vt -0.586139 -1.06178
vn 0.915862 0 0.401493
v 3.20163 0.94802 2.62185
vt -0.586139 0.94802
vt -1.2089 0.94802
f 13/125/25 12/126/26 73/127/26 72/128/25 

vt -1.62641 -1.06178
vt -1.00365 -1.06178
vn 0.988569 0 0.15077
v 3.37508 0.94802 2.02374
vt -1.00365 0.94802
vt -1.62641 0.94802
f 12/129/26 11/130/27 74/131/27 73/132/26 

vt -1.95431 -1.06178
vt -1.33155 -1.06178
vn 0.993906 0 -0.110228
v 3.38781 0.94802 1.40111
vt -1.33155 0.94802
vt -1.95431 0.94802
f 11/133/27 10/134/28 75/135/28 74/136/27 

vt -2.17024 -1.06178
vt -1.54748 -1.06178
vn 0.931511 0 -0.363714
v 3.23897 0.94802 0.796401
vt -1.54748 0.94802
vt -2.17024 0.94802
f 10/137/28 9/138/29 76/139/29 75/140/28 

vt -2.25949 -1.06178
vt -1.63674 -1.06178
vn 0.805634 0 -0.592413
v 2.93868 0.94802 0.250824
vt -1.63674 0.94802
vt -2.25949 0.94802
f 9/141/29 8/142/30 77/143/30 76/144/29 

vt -2.21599 -1.06178
vt -1.59323 -1.06178
vn 0.624855 0 -0.780741
v 2.50742 0.94802 -0.198443
vt -1.59323 0.94802
vt -2.21599 0.94802
f 8/145/30 7/146/31 78/147/31 77/148/30 

vt -2.04269 -1.06178
vt -1.41993 -1.06178
vn 0.401493 0 -0.915862
v 1.97457 0.94802 -0.520784
vt -1.41993 0.94802
vt -2.04269 0.94802
f 7/149/31 6/150/32 79/151/32 78/152/31 

vt -1.7514 -1.06178
vt -1.12864 -1.06178
vn 0.15077 0 -0.988569
v 1.37646 0.94802 -0.69423
vt -1.12864 0.94802
vt -1.7514 0.94802
f 6/153/32 5/154/33 80/155/33 79/156/32 

vt -1.36198 -1.06178
vt -0.73922 -1.06178
vt -0.73922 0.94802
vt -1.36198 0.94802
f 5/157/33 4/158/10 58/159/10 80/160/33 

vt 0.753832 0.706963
vn -2.59908e-32 1 7.94163e-33
v 0.988428 0.94802 -0.318277
vt 0.988428 0.318277
vt 1.37646 0.69423
f 58/161/34 81/162/34 80/163/34

v 0.476327 0.94802 -0.24339
vt 0.476327 0.24339
f 58/161/34 82/164/34 81/162/34

vt 0.149125 0.558115
f 57/165/34 82/164/34 58/161/34

v 0.00105694 0.94802 -0.0385137
vt 0.00105694 0.0385137
f 57/165/34 83/166/34 82/164/34

vt -0.396453 0.257828
f 59/167/34 83/166/34 57/165/34

v -0.404992 0.94802 0.282391
vt -0.404992 -0.282391
f 59/167/34 84/168/34 83/166/34

v -0.71415 0.94802 0.697454
vt -0.71415 -0.697454
f 59/167/34 85/169/34 84/168/34

vt -0.84572 -0.173432
f 60/170/34 85/169/34 59/167/34

v -0.905347 0.94802 1.17839
vt -0.905347 -1.17839
f 60/170/34 86/171/34 85/169/34

v -0.965553 0.94802 1.69242
vt -0.965553 -1.69242
f 60/170/34 87/172/34 86/171/34

vt -1.16806 -0.706277
f 87/172/34 60/170/34 61/173/34

vt -0.905104 -3.0773
f 61/173/34 65/174/34 87/172/34

vt -1.20539 -2.53173
f 61/173/34 64/175/34 65/174/34

vt -1.34151 -1.30439
f 62/176/34 64/175/34 61/173/34

vt -1.35424 -1.92702
f 64/175/34 62/176/34 63/177/34

v -0.890667 0.94802 2.20452
vt -0.890667 -2.20452
f 87/172/34 65/174/34 88/178/34

vt -0.473844 -3.52657
f 88/178/34 65/174/34 66/179/34

v -0.68579 0.94802 2.67979
vt -0.68579 -2.67979
f 88/178/34 66/179/34 89/180/34

v -0.364886 0.94802 3.08584
vt -0.364886 -3.08584
f 89/180/34 66/179/34 90/181/34

vt 0.0590002 -3.84891
f 90/181/34 66/179/34 67/182/34

v 0.0501773 0.94802 3.395
vt 0.0501773 -3.395
f 90/181/34 67/182/34 91/183/34

v 0.531113 0.94802 3.5862
vt 0.531113 -3.5862
f 91/183/34 67/182/34 92/184/34

vt 0.657116 -4.02236
f 92/184/34 67/182/34 68/185/34

v 1.04515 0.94802 3.6464
vt 1.04515 -3.6464
f 92/184/34 68/185/34 93/186/34

vt 1.27974 -4.03509
f 93/186/34 68/185/34 69/187/34

v 1.55725 0.94802 3.57152
vt 1.55725 -3.57152
f 93/186/34 69/187/34 94/188/34

vt 1.88445 -3.88624
f 94/188/34 69/187/34 70/189/34

v 2.03252 0.94802 3.36664
vt 2.03252 -3.36664
f 94/188/34 70/189/34 95/190/34

vt 2.43003 -3.58596
f 95/190/34 70/189/34 71/191/34

v 2.43857 0.94802 3.04574
vt 2.43857 -3.04574
f 95/190/34 71/191/34 96/192/34

vt 2.87929 -3.1547
f 96/192/34 71/191/34 72/193/34

v 2.74772 0.94802 2.63067
vt 2.74772 -2.63067
f 96/192/34 72/193/34 97/194/34

v 2.93892 0.94802 2.14974
vt 2.93892 -2.14974
f 97/194/34 72/193/34 98/195/34

vt 3.20163 -2.62185
f 98/195/34 72/193/34 73/196/34

v 2.99913 0.94802 1.6357
vt 2.99913 -1.6357
f 98/195/34 73/196/34 99/197/34

vt 3.23897 -0.796401
f 76/198/34 99/197/34 73/196/34

vt 2.93868 -0.250824
f 77/199/34 99/197/34 76/198/34

v 2.92424 0.94802 1.1236
vt 2.92424 -1.1236
f 77/199/34 100/200/34 99/197/34

v 2.71936 0.94802 0.648333
vt 2.71936 -0.648333
f 77/199/34 101/201/34 100/200/34

vt 2.50742 0.198443
f 78/202/34 101/201/34 77/199/34

v 2.39846 0.94802 0.242284
vt 2.39846 -0.242284
f 78/202/34 102/203/34 101/201/34

v 1.9834 0.94802 -0.0668733
vt 1.9834 0.0668733
f 78/202/34 103/204/34 102/203/34

vt 1.97457 0.520784
f 79/205/34 103/204/34 78/202/34

v 1.50246 0.94802 -0.25807
vt 1.50246 0.25807
f 79/205/34 104/206/34 103/204/34

f 80/163/34 104/206/34 79/205/34

f 80/163/34 81/162/34 104/206/34

vt 0.944692 0.94802
vn 0.0143047 0 0.999898
v 0.988428 -0.343501 -0.318277
vt 0.944692 -0.343501
v 1.50246 -0.343501 -0.25807
vt 1.46224 -0.343501
vn -0.244975 0 0.969529
vt 1.46224 0.94802
f 81/207/35 105/208/35 106/209/36 104/210/36 

vt 0.506531 0.94802
vn 0.27261 0 0.962125
vt 0.506531 -0.343501
vt 1.02408 -0.343501
vt 1.02408 0.94802
f 82/211/37 34/212/37 105/213/35 81/214/35 

vt 0.0162166 0.94802
vn 0.512337 0 0.858784
vt 0.533764 0.94802
f 83/215/38 35/37/38 34/36/37 82/216/37 

vt -0.492838 0.94802
vn 0.717149 0 0.69692
v -0.404992 -0.343501 0.282391
vt -0.492838 -0.343501
vt 0.0247096 -0.343501
vt 0.0247096 0.94802
f 84/217/39 107/218/39 35/219/38 83/220/38 

vt -0.985942 0.94802
vn 0.873089 0 0.487561
v -0.71415 -0.343501 0.697454
vt -0.985942 -0.343501
vt -0.468394 -0.343501
vt -0.468394 0.94802
f 85/221/40 108/222/40 107/223/39 84/224/39 

vt -1.42949 0.94802
vn 0.969529 0 0.244975
v -0.905347 -0.343501 1.17839
vt -1.42949 -0.343501
vt -0.911942 -0.343501
vt -0.911942 0.94802
f 86/225/41 109/226/41 108/227/40 85/228/40 

vt -1.79326 0.94802
vn 0.999898 0 -0.0143047
v -0.965553 -0.343501 1.69242
vt -1.79326 -0.343501
vt -1.27571 -0.343501
vt -1.27571 0.94802
f 87/229/42 110/230/42 109/231/41 86/232/41 

vt -2.05245 0.94802
vn 0.962125 0 -0.27261
v -0.890667 -0.343501 2.20452
vt -2.05245 -0.343501
vt -1.5349 -0.343501
vt -1.5349 0.94802
f 88/233/43 111/234/43 110/235/42 87/236/42 

vt -2.18941 0.94802
vn 0.858784 0 -0.512337
v -0.68579 -0.343501 2.67979
vt -2.18941 -0.343501
vt -1.67186 -0.343501
vt -1.67186 0.94802
f 89/237/44 112/238/44 111/239/43 88/240/43 

vt -2.1948 0.94802
vn 0.69692 0 -0.717149
v -0.364886 -0.343501 3.08584
vt -2.1948 -0.343501
vt -1.67725 -0.343501
vt -1.67725 0.94802
f 90/241/45 113/242/45 112/243/44 89/244/44 

vt -2.06825 0.94802
vn 0.487561 0 -0.873089
vt -2.06825 -0.343501
vt -1.5507 -0.343501
vt -1.5507 0.94802
f 91/245/46 45/246/46 113/247/45 90/248/45 

vt -1.81839 0.94802
vn 0.244975 0 -0.969529
vt -1.30084 0.94802
f 92/249/47 46/51/47 45/50/46 91/250/46 

vt -1.46224 0.94802
vn -0.0143047 0 -0.999898
v 1.04515 -0.343501 3.6464
vt -1.46224 -0.343501
vt -0.944692 -0.343501
vt -0.944692 0.94802
f 93/251/48 114/252/48 46/253/47 92/254/47 

vt -1.02408 0.94802
vn -0.27261 0 -0.962125
v 1.55725 -0.343501 3.57152
vt -1.02408 -0.343501
vt -0.506531 -0.343501
vt -0.506531 0.94802
f 94/255/49 115/256/49 114/257/48 93/258/48 

vt -0.533764 0.94802
vn -0.512337 0 -0.858784
v 2.03252 -0.343501 3.36664
vt -0.533764 -0.343501
vt -0.0162166 -0.343501
vt -0.0162166 0.94802
f 95/259/50 116/260/50 115/261/49 94/262/49 

vt -0.0247096 0.94802
vn -0.717149 0 -0.69692
v 2.43857 -0.343501 3.04574
vt -0.0247096 -0.343501
vt 0.492838 -0.343501
vt 0.492838 0.94802
f 96/263/51 117/264/51 116/265/50 95/266/50 

vt 0.468394 0.94802
vn -0.873089 0 -0.487561
v 2.74772 -0.343501 2.63067
vt 0.468394 -0.343501
vt 0.985942 -0.343501
vt 0.985942 0.94802
f 97/267/52 118/268/52 117/269/51 96/270/51 

vt 0.911942 0.94802
vn -0.969529 0 -0.244975
v 2.93892 -0.343501 2.14974
vt 0.911942 -0.343501
vt 1.42949 -0.343501
vt 1.42949 0.94802
f 98/271/53 119/272/53 118/273/52 97/274/52 

vt 1.27571 0.94802
vn -0.999898 0 0.0143047
v 2.99913 -0.343501 1.6357
vt 1.27571 -0.343501
vt 1.79326 -0.343501
vt 1.79326 0.94802
f 99/275/54 120/276/54 119/277/53 98/278/53 

vt 1.5349 0.94802
vn -0.962125 0 0.27261
v 2.92424 -0.343501 1.1236
vt 1.5349 -0.343501
vt 2.05245 -0.343501
vt 2.05245 0.94802
f 100/279/55 121/280/55 120/281/54 99/282/54 

vt 1.67186 0.94802
vn -0.858784 0 0.512337
v 2.71936 -0.343501 0.648333
vt 1.67186 -0.343501
vt 2.18941 -0.343501
vt 2.18941 0.94802
f 101/283/56 122/284/56 121/285/55 100/286/55 

vt 1.67725 0.94802
vn -0.69692 0 0.717149
v 2.39846 -0.343501 0.242284
vt 1.67725 -0.343501
vt 2.1948 -0.343501
vt 2.1948 0.94802
f 102/287/57 123/288/57 122/289/56 101/290/56 

vt 1.5507 0.94802
vn -0.487561 0 0.873089
v 1.9834 -0.343501 -0.0668733
vt 1.5507 -0.343501
vt 2.06825 -0.343501
vt 2.06825 0.94802
f 103/291/58 124/292/58 123/293/57 102/294/57 

vt 1.30084 0.94802
vt 1.30084 -0.343501
vt 1.81839 -0.343501
vt 1.81839 0.94802
f 104/295/36 106/296/36 124/297/58 103/298/58 

vn -1.4112e-32 -1 -9.40798e-33
f 118/25/59 117/24/59 116/23/59 115/22/59 114/21/59 46/20/59 45/39/59 113/40/59 112/41/59 111/42/59 110/43/59 109/44/59 108/45/59 107/46/59 35/47/59 34/1/59 105/33/59 106/32/59 124/31/59 123/30/59 122/29/59 121/28/59 120/27/59 119/26/59 

vt 0.468394 -1.06178
vt 0.985942 -1.06178
f 25/299/52 24/300/51 117/269/51 118/268/52 

vt -0.0247096 -1.06178
vt 0.492838 -1.06178
f 24/301/51 23/302/50 116/265/50 117/264/51 

vt -0.533764 -1.06178
vt -0.0162166 -1.06178
f 23/303/50 22/304/49 115/261/49 116/260/50 

vt -1.02408 -1.06178
vt -0.506531 -1.06178
f 22/305/49 21/306/48 114/257/48 115/256/49 

vt -1.46224 -1.06178
vt -0.944692 -1.06178
f 21/307/48 20/308/7 46/253/7 114/252/48 

vt 0.911942 -1.06178
vn -0.969529 -1.40161e-33 -0.244975
vt 1.42949 -1.06178
f 26/309/60 25/310/52 118/273/52 119/272/60 

vt 1.27571 -1.06178
vn -0.999898 3.4175e-34 0.0143047
vt 1.79326 -1.06178
f 27/311/61 26/312/60 119/277/60 120/276/61 

vt 1.5349 -1.06178
vn -0.962125 -3.02616e-33 0.27261
vt 2.05245 -1.06178
f 28/313/62 27/314/61 120/281/61 121/280/62 

vt 1.67186 -1.06178
vn -0.858784 -4.76952e-33 0.512337
vt 2.18941 -1.06178
f 29/315/63 28/316/62 121/285/62 122/284/63 

vt 1.67725 -1.06178
vt 2.1948 -1.06178
f 30/317/57 29/318/63 122/289/63 123/288/57 

vt 1.5507 -1.06178
vt 2.06825 -1.06178
f 31/319/58 30/320/57 123/293/57 124/292/58 

vt 1.30084 -1.06178
vt 1.81839 -1.06178
f 32/321/36 31/322/58 124/297/58 106/296/36 

vt 0.944692 -1.06178
vt 1.46224 -1.06178
f 33/323/35 32/324/36 106/209/36 105/208/35 

vt 0.506531 -1.06178
vt 1.02408 -1.06178
f 1/325/3 33/326/35 105/213/35 34/212/3 

vt -2.06825 -1.06178
vt -1.5507 -1.06178
f 37/327/6 38/328/45 113/247/45 45/246/6 

vt -2.1948 -1.06178
vt -1.67725 -1.06178
f 38/329/45 39/330/44 112/243/44 113/242/45 

vt -2.18941 -1.06178
vt -1.67186 -1.06178
vn 0.962125 -1.74336e-33 -0.27261
f 39/331/44 40/332/64 111/239/64 112/238/44 

vt -2.05245 -1.06178
vt -1.5349 -1.06178
vn 0.999898 -1.74336e-33 -0.0143047
f 40/333/64 41/334/65 110/235/65 111/234/64 

vt -1.79326 -1.06178
vt -1.27571 -1.06178
vn 0.969529 4.45106e-33 0.244975
f 41/335/65 42/336/66 109/231/66 110/230/65 

vt -1.42949 -1.06178
vt -0.911942 -1.06178
vn 0.873089 4.45106e-33 0.487561
f 42/337/66 43/338/67 108/227/67 109/226/66 

vt -0.985942 -1.06178
vt -0.468394 -1.06178
f 43/339/67 44/340/39 107/223/39 108/222/67 

vt -0.492838 -1.06178
vt 0.0247096 -1.06178
f 44/341/39 36/342/4 35/219/4 107/218/39 

vt 3.37508 -2.02374
f 76/198/34 73/196/34 74/343/34

vt 3.38781 -1.40111
f 76/198/34 74/343/34 75/344/34

g Mesh2 Model

v -2.03585 -1.06178 -0.360678
vt 2.03585 0.360678
v -2.32798 -1.06178 0.0315299
vt 2.32798 -0.0315299
v -2.71167 -1.06178 0.334764
vt 2.71167 -0.334764
v -3.16077 -1.06178 0.528359
vt 3.16077 -0.528359
v -3.64467 -1.06178 0.599122
vt 3.64467 -0.599122
v -4.1304 -1.06178 0.542231
vt 4.1304 -0.542231
v -4.58486 -1.06178 0.361562
vt 4.58486 -0.361562
v -4.97707 -1.06178 0.069428
vt 4.97707 -0.069428
v -5.2803 -1.06178 -0.314263
vt 5.2803 0.314263
v -5.47389 -1.06178 -0.763362
vt 5.47389 0.763362
v -5.54466 -1.06178 -1.24727
vt 5.54466 1.24727
v -5.48777 -1.06178 -1.73299
vt 5.48777 1.73299
v -5.3071 -1.06178 -2.18745
vt 5.3071 2.18745
v -5.01496 -1.06178 -2.57966
vt 5.01496 2.57966
v -4.63127 -1.06178 -2.88289
vt 4.63127 2.88289
v -4.18217 -1.06178 -3.07649
vt 4.18217 3.07649
v -3.69827 -1.06178 -3.14725
vt 3.69827 3.14725
v -3.21254 -1.06178 -3.09036
vt 3.21254 3.09036
v -2.75809 -1.06178 -2.90969
vt 2.75809 2.90969
v -2.36588 -1.06178 -2.61755
vt 2.36588 2.61755
v -2.06264 -1.06178 -2.23386
vt 2.06264 2.23386
v -1.86905 -1.06178 -1.78476
vt 1.86905 1.78476
v -1.79829 -1.06178 -1.30086
vt 1.79829 1.30086
v -1.85518 -1.06178 -0.815132
vt 1.85518 0.815132
f 125/345/1 126/346/1 127/347/1 128/348/1 129/349/1 130/350/1 131/351/1 132/352/1 133/353/1 134/354/1 135/355/1 136/356/1 137/357/1 138/358/1 139/359/1 140/360/1 141/361/1 142/362/1 143/363/1 144/364/1 145/365/1 146/366/1 147/367/1 148/368/1 

vt -1.41591 -1.06178
vn 0.717149 -7.84575e-33 0.69692
vt -0.926857 -1.06178
vn 0.873089 2.55887e-18 0.487561
v -2.03585 0.532464 -0.360678
vt -0.926857 0.532464
v -2.32798 0.532464 0.0315299
vt -1.41591 0.532464
f 126/369/68 125/370/69 149/371/69 150/372/68 

vt -0.416936 -1.06178
vt 0.0721134 -1.06178
vn 0.969529 2.55887e-18 0.244975
v -1.85518 0.532464 -0.815132
vt 0.0721134 0.532464
vt -0.416936 0.532464
f 125/373/69 148/374/70 151/375/70 149/376/69 

vt 0.593784 -1.06178
vt 1.08283 -1.06178
v -1.79829 0.532464 -1.30086
vt 1.08283 0.532464
vt 0.593784 0.532464
f 148/377/70 147/378/42 152/379/42 151/380/70 

vt 1.54737 -1.06178
vt 2.03642 -1.06178
vn 0.962125 -1.93634e-33 -0.27261
v -1.86905 0.532464 -1.78476
vt 2.03642 0.532464
vt 1.54737 0.532464
f 147/381/42 146/382/71 153/383/71 152/384/42 

vt 2.37885 -1.06178
vt 2.8679 -1.06178
vn 0.858784 5.73903e-33 -0.512337
v -2.06264 0.532464 -2.23386
vt 2.8679 0.532464
vt 2.37885 0.532464
f 146/385/71 145/386/72 154/387/72 153/388/71 

vt 3.03155 -1.06178
vt 3.5206 -1.06178
vn 0.69692 7.67537e-33 -0.717149
v -2.36588 0.532464 -2.61755
vt 3.5206 0.532464
vt 3.03155 0.532464
f 145/389/72 144/390/73 155/391/73 154/392/72 

vt 3.46099 -1.06178
vt 3.95004 -1.06178
v -2.75809 0.532464 -2.90969
vt 3.95004 0.532464
vt 3.46099 0.532464
f 144/393/73 143/394/46 156/395/46 155/396/73 

vt 3.6379 -1.06178
vt 4.12695 -1.06178
vn 0.244975 2.27612e-33 -0.969529
v -3.21254 0.532464 -3.09036
vt 4.12695 0.532464
vt 3.6379 0.532464
f 143/397/46 142/398/74 157/399/74 156/400/46 

vt 3.55023 -1.06178
vt 4.03928 -1.06178
vn -0.0143047 2.27612e-33 -0.999898
v -3.69827 0.532464 -3.14725
vt 4.03928 0.532464
vt 3.55023 0.532464
f 142/401/74 141/402/75 158/403/75 157/404/74 

vt 3.20396 -1.06178
vt 3.69301 -1.06178
v -4.18217 0.532464 -3.07649
vt 3.69301 0.532464
vt 3.20396 0.532464
f 141/405/75 140/406/49 159/407/49 158/408/75 

vt 2.62268 -1.06178
vt 3.11173 -1.06178
v -4.63127 0.532464 -2.88289
vt 3.11173 0.532464
vt 2.62268 0.532464
f 140/409/49 139/410/50 160/411/50 159/412/49 

vt 1.846 -1.06178
vt 2.33505 -1.06178
v -5.01496 0.532464 -2.57966
vt 2.33505 0.532464
vt 1.846 0.532464
f 139/413/50 138/414/51 161/415/51 160/416/50 

vt 0.926857 -1.06178
vt 1.41591 -1.06178
vn -0.873089 3.61411e-33 -0.487561
v -5.3071 0.532464 -2.18745
vt 1.41591 0.532464
vt 0.926857 0.532464
f 138/417/51 137/418/76 162/419/76 161/420/51 

vt -0.0721134 -1.06178
vt 0.416936 -1.06178
vn -0.969529 4.18314e-33 -0.244975
v -5.48777 0.532464 -1.73299
vt 0.416936 0.532464
vt -0.0721134 0.532464
f 137/421/76 136/422/77 163/423/77 162/424/76 

vt -1.08283 -1.06178
vt -0.593784 -1.06178
vn -0.999898 5.6903e-34 0.0143047
v -5.54466 0.532464 -1.24727
vt -0.593784 0.532464
vt -1.08283 0.532464
f 136/425/77 135/426/78 164/427/78 163/428/77 

vt -2.03642 -1.06178
vt -1.54737 -1.06178
v -5.47389 0.532464 -0.763362
vt -1.54737 0.532464
vt -2.03642 0.532464
f 135/429/78 134/430/55 165/431/55 164/432/78 

vt -2.8679 -1.06178
vt -2.37885 -1.06178
v -5.2803 0.532464 -0.314263
vt -2.37885 0.532464
vt -2.8679 0.532464
f 134/433/55 133/434/56 166/435/56 165/436/55 

vt -3.5206 -1.06178
vt -3.03155 -1.06178
v -4.97707 0.532464 0.069428
vt -3.03155 0.532464
vt -3.5206 0.532464
f 133/437/56 132/438/57 167/439/57 166/440/56 

vt -3.95004 -1.06178
vt -3.46099 -1.06178
vn -0.487561 2.27273e-33 0.873089
v -4.58486 0.532464 0.361562
vt -3.46099 0.532464
vt -3.95004 0.532464
f 132/441/57 131/442/79 168/443/79 167/444/57 

vt -4.12695 -1.06178
vt -3.6379 -1.06178
vn -0.244975 2.27273e-33 0.969529
v -4.1304 0.532464 0.542231
vt -3.6379 0.532464
vt -4.12695 0.532464
f 131/445/79 130/446/80 169/447/80 168/448/79 

vt -4.03928 -1.06178
vt -3.55023 -1.06178
vn 0.0143047 -2.8311e-33 0.999898
v -3.64467 0.532464 0.599122
vt -3.55023 0.532464
vt -4.03928 0.532464
f 130/449/80 129/450/81 170/451/81 169/452/80 

vt -3.69301 -1.06178
vt -3.20396 -1.06178
vn 0.27261 -2.8311e-33 0.962125
v -3.16077 0.532464 0.528359
vt -3.20396 0.532464
vt -3.69301 0.532464
f 129/453/81 128/454/82 171/455/82 170/456/81 

vt -3.11173 -1.06178
vt -2.62268 -1.06178
v -2.71167 0.532464 0.334764
vt -2.62268 0.532464
vt -3.11173 0.532464
f 128/457/82 127/458/38 172/459/38 171/460/82 

vt -2.33505 -1.06178
vt -1.846 -1.06178
vt -1.846 0.532464
vt -2.33505 0.532464
f 127/461/38 126/462/68 150/463/68 172/464/38 

vt -2.32798 -0.0315299
vn 0 1 -0
vt -2.03585 0.360678
vt -1.85518 0.815132
vt -1.79829 1.30086
vt -1.86905 1.78476
vt -2.06264 2.23386
vt -2.36588 2.61755
vt -2.75809 2.90969
vt -3.21254 3.09036
vt -3.69827 3.14725
vt -4.18217 3.07649
vt -4.63127 2.88289
vt -5.01496 2.57966
vt -5.3071 2.18745
vt -5.48777 1.73299
vt -5.54466 1.24727
vt -5.47389 0.763362
vt -5.2803 0.314263
vt -4.97707 -0.069428
vt -4.58486 -0.361562
vt -4.1304 -0.542231
vt -3.64467 -0.599122
vt -3.16077 -0.528359
vt -2.71167 -0.334764
f 150/465/83 149/466/83 151/467/83 152/468/83 153/469/83 154/470/83 155/471/83 156/472/83 157/473/83 158/474/83 159/475/83 160/476/83 161/477/83 162/478/83 163/479/83 164/480/83 165/481/83 166/482/83 167/483/83 168/484/83 169/485/83 170/486/83 171/487/83 172/488/83 

